HIERARCHY
ROOT Model
{
	OFFSET 0 0 0
	CHANNELS 6 Xposition Yposition Zposition Zrotation Xrotation Yrotation
	JOINT Model1
	{
		OFFSET 0 -2.25479 2.99384
		CHANNELS 3 Zrotation Xrotation Yrotation
		JOINT Model2
		{
			OFFSET 12.111 0 0
			CHANNELS 3 Zrotation Xrotation Yrotation
			JOINT Model3
			{
				OFFSET 11.5502 0 0
				CHANNELS 3 Zrotation Xrotation Yrotation
				JOINT Model4
				{
					OFFSET 11.781 0 0
					CHANNELS 3 Zrotation Xrotation Yrotation
					JOINT Model5
					{
						OFFSET 20.0601 0 0
						CHANNELS 3 Zrotation Xrotation Yrotation
						JOINT Model6
						{
							OFFSET 11.1962 0 0
							CHANNELS 3 Zrotation Xrotation Yrotation
							End Site
							{
								OFFSET 0 0 0
							}
						}
					}
					JOINT Model7
					{
						OFFSET 10.8223 0.417534 3.51114
						CHANNELS 3 Zrotation Xrotation Yrotation
						JOINT Model8
						{
							OFFSET -6.07944 0 0
							CHANNELS 3 Zrotation Xrotation Yrotation
							JOINT Model9
							{
								OFFSET -0.277405 10.39 -0.051239
								CHANNELS 3 Zrotation Xrotation Yrotation
								JOINT Model10
								{
									OFFSET -3.43909 -0.282043 1.86679
									CHANNELS 3 Zrotation Xrotation Yrotation
									JOINT Model11
									{
										OFFSET 13.0269 0 0
										CHANNELS 3 Zrotation Xrotation Yrotation
										JOINT Model12
										{
											OFFSET 10.8866 0 0
											CHANNELS 3 Zrotation Xrotation Yrotation
											JOINT Model13
											{
												OFFSET 16.7317 0 0
												CHANNELS 3 Zrotation Xrotation Yrotation
												JOINT Model14
												{
													OFFSET 11.8292 0 0
													CHANNELS 3 Zrotation Xrotation Yrotation
													JOINT Model15
													{
														OFFSET 4.82751 -3.73566 -0.836517
														CHANNELS 3 Zrotation Xrotation Yrotation
														JOINT Model16
														{
															OFFSET 3.75311 -0.0582886 -0.0186462
															CHANNELS 3 Zrotation Xrotation Yrotation
															JOINT Model17
															{
																OFFSET 2.88689 0.0192337 0.014801
																CHANNELS 3 Zrotation Xrotation Yrotation
																End Site
																{
																	OFFSET 0 0 0
																}
															}
														}
													}
													JOINT Model18
													{
														OFFSET 9.72197 -3.06458 0.23877
														CHANNELS 3 Zrotation Xrotation Yrotation
														JOINT Model19
														{
															OFFSET 4.61131 0 0
															CHANNELS 3 Zrotation Xrotation Yrotation
															JOINT Model20
															{
																OFFSET 2.8969 -7.62939e-006 0
																CHANNELS 3 Zrotation Xrotation Yrotation
																End Site
																{
																	OFFSET 0 0 0
																}
															}
														}
													}
													JOINT Model21
													{
														OFFSET 9.54431 -0.745064 0.588928
														CHANNELS 3 Zrotation Xrotation Yrotation
														JOINT Model22
														{
															OFFSET 5.33978 0 0
															CHANNELS 3 Zrotation Xrotation Yrotation
															JOINT Model23
															{
																OFFSET 3.03619 7.62939e-006 0
																CHANNELS 3 Zrotation Xrotation Yrotation
																End Site
																{
																	OFFSET 0 0 0
																}
															}
														}
													}
													JOINT Model24
													{
														OFFSET 9.47758 1.51286 0.485107
														CHANNELS 3 Zrotation Xrotation Yrotation
														JOINT Model25
														{
															OFFSET 4.96136 7.62939e-006 0
															CHANNELS 3 Zrotation Xrotation Yrotation
															JOINT Model26
															{
																OFFSET 2.51965 0 0
																CHANNELS 3 Zrotation Xrotation Yrotation
																End Site
																{
																	OFFSET 0 0 0
																}
															}
														}
													}
													JOINT Model27
													{
														OFFSET 9.34247 3.34117 -0.239288
														CHANNELS 3 Zrotation Xrotation Yrotation
														JOINT Model28
														{
															OFFSET 3.28259 2.28882e-005 0
															CHANNELS 3 Zrotation Xrotation Yrotation
															JOINT Model29
															{
																OFFSET 2.1292 0 0
																CHANNELS 3 Zrotation Xrotation Yrotation
																End Site
																{
																	OFFSET 0 0 0
																}
															}
														}
													}
												}
											}
										}
									}
								}
							}
						}
					}
					JOINT Model30
					{
						OFFSET 10.8223 0.4179 -3.51108
						CHANNELS 3 Zrotation Xrotation Yrotation
						JOINT Model31
						{
							OFFSET 6.07944 0 0
							CHANNELS 3 Zrotation Xrotation Yrotation
							JOINT Model32
							{
								OFFSET 0.277405 -10.39 0.051239
								CHANNELS 3 Zrotation Xrotation Yrotation
								JOINT Model33
								{
									OFFSET 3.43909 0.282043 -1.86679
									CHANNELS 3 Zrotation Xrotation Yrotation
									JOINT Model34
									{
										OFFSET -13.0269 0 0
										CHANNELS 3 Zrotation Xrotation Yrotation
										JOINT Model35
										{
											OFFSET -10.8866 0 0
											CHANNELS 3 Zrotation Xrotation Yrotation
											JOINT Model36
											{
												OFFSET -16.7317 0 0
												CHANNELS 3 Zrotation Xrotation Yrotation
												JOINT Model37
												{
													OFFSET -11.8292 0 0
													CHANNELS 3 Zrotation Xrotation Yrotation
													JOINT Model38
													{
														OFFSET -4.82751 3.73566 0.836517
														CHANNELS 3 Zrotation Xrotation Yrotation
														JOINT Model39
														{
															OFFSET -3.75311 0.0582886 0.0186462
															CHANNELS 3 Zrotation Xrotation Yrotation
															JOINT Model40
															{
																OFFSET -2.88687 -0.0192337 -0.014801
																CHANNELS 3 Zrotation Xrotation Yrotation
																End Site
																{
																	OFFSET 0 0 0
																}
															}
														}
													}
													JOINT Model41
													{
														OFFSET -9.72198 3.06459 -0.23877
														CHANNELS 3 Zrotation Xrotation Yrotation
														JOINT Model42
														{
															OFFSET -4.6113 0 0
															CHANNELS 3 Zrotation Xrotation Yrotation
															JOINT Model43
															{
																OFFSET -2.89691 0 0
																CHANNELS 3 Zrotation Xrotation Yrotation
																End Site
																{
																	OFFSET 0 0 0
																}
															}
														}
													}
													JOINT Model44
													{
														OFFSET -9.54431 0.745064 -0.588928
														CHANNELS 3 Zrotation Xrotation Yrotation
														JOINT Model45
														{
															OFFSET -5.33978 0 0
															CHANNELS 3 Zrotation Xrotation Yrotation
															JOINT Model46
															{
																OFFSET -3.03619 -1.52588e-005 0
																CHANNELS 3 Zrotation Xrotation Yrotation
																End Site
																{
																	OFFSET 0 0 0
																}
															}
														}
													}
													JOINT Model47
													{
														OFFSET -9.4776 -1.51286 -0.485107
														CHANNELS 3 Zrotation Xrotation Yrotation
														JOINT Model48
														{
															OFFSET -4.96136 -1.52588e-005 0
															CHANNELS 3 Zrotation Xrotation Yrotation
															JOINT Model49
															{
																OFFSET -2.51965 0 0
																CHANNELS 3 Zrotation Xrotation Yrotation
																End Site
																{
																	OFFSET 0 0 0
																}
															}
														}
													}
													JOINT Model50
													{
														OFFSET -9.34247 -3.34118 0.239288
														CHANNELS 3 Zrotation Xrotation Yrotation
														JOINT Model51
														{
															OFFSET -3.28259 -2.28882e-005 0
															CHANNELS 3 Zrotation Xrotation Yrotation
															JOINT Model52
															{
																OFFSET -2.12921 0 0
																CHANNELS 3 Zrotation Xrotation Yrotation
																End Site
																{
																	OFFSET 0 0 0
																}
															}
														}
													}
												}
											}
										}
									}
								}
							}
						}
					}
				}
			}
		}
	}
	JOINT Model53
	{
		OFFSET 4.38025 -2.14632 -1.11517
		CHANNELS 3 Zrotation Xrotation Yrotation
		JOINT Model54
		{
			OFFSET 0 0 4.94998
			CHANNELS 3 Zrotation Xrotation Yrotation
			JOINT Model55
			{
				OFFSET 18.5642 0 0
				CHANNELS 3 Zrotation Xrotation Yrotation
				JOINT Model56
				{
					OFFSET 21.2884 0 0
					CHANNELS 3 Zrotation Xrotation Yrotation
					JOINT Model57
					{
						OFFSET 30.261 0 0
						CHANNELS 3 Zrotation Xrotation Yrotation
						JOINT Model58
						{
							OFFSET 11.7259 0 0
							CHANNELS 3 Zrotation Xrotation Yrotation
							JOINT Model59
							{
								OFFSET 10.682 0 0
								CHANNELS 3 Zrotation Xrotation Yrotation
								End Site
								{
									OFFSET 0 0 0
								}
							}
						}
					}
				}
			}
		}
	}
	JOINT Model60
	{
		OFFSET -4.38025 -2.14632 -1.11517
		CHANNELS 3 Zrotation Xrotation Yrotation
		JOINT Model61
		{
			OFFSET 0 0 -4.94998
			CHANNELS 3 Zrotation Xrotation Yrotation
			JOINT Model62
			{
				OFFSET -18.5642 0 0
				CHANNELS 3 Zrotation Xrotation Yrotation
				JOINT Model63
				{
					OFFSET -21.2884 0 0
					CHANNELS 3 Zrotation Xrotation Yrotation
					JOINT Model64
					{
						OFFSET -30.261 0 0
						CHANNELS 3 Zrotation Xrotation Yrotation
						JOINT Model65
						{
							OFFSET -11.7259 0 0
							CHANNELS 3 Zrotation Xrotation Yrotation
							JOINT Model66
							{
								OFFSET -10.682 0 0
								CHANNELS 3 Zrotation Xrotation Yrotation
								End Site
								{
									OFFSET 0 0 0
								}
							}
						}
					}
				}
			}
		}
	}
}
MOTION
Frames: 4
Frame Time: 0.033333
-348.31 178.571 -374.527 71.7546 -52.3857 73.3081 -180 4.29621e-031 -90 0.25718 1.61779 -0.519808 0.529345 3.23273 -1.0475 0.529345 3.23317 -1.04751 -5.35998 -0.72991 -0.570251 9.20601 -0.820607 4.23761 120.092 75.5343 58.4939 -13.6704 -4.35354 0.819735 -167.277 84.4999 48.8109 -165.878 6.71529 7.02569 -7.35104e-006 31.5547 3.50562e-005 -72.8336 1.4299 0.582055 -1.06217e-007 1.52871 -3.88218e-007 -1.94521 0.178504 -10.4851 -72.0648 39.0385 39.3397 33.3638 2.10362 14.835 0.588947 0.308273 6.35287 -99.6409 81.413 100.35 -0.0181409 2.77671e-005 -0.117315 -0.124139 0.0024111 -0.799296 -79.8382 79.5773 80.5374 -0.000225772 -0.000220934 2.21665e-005 -0.00095622 0.00012288 -2.73586e-005 -66.7416 80.4058 67.2171 -0.000437128 1.59341e-005 -2.73485e-005 -0.000136598 -0.000109307 -5.46791e-005 -6.42159 81.2158 8.01779 -0.000218564 1.68887e-005 0.000212112 0.000901587 -0.000184828 -0.000218604 -59.9282 75.5373 58.5147 -9.12507 5.5865 4.12638 -167.277 84.4999 48.8109 -176.268 5.67327 14.9732 -7.13667e-006 25.8488 3.23318e-005 -109.21 8.2643 0.581462 -7.24593e-006 12.3249 3.4359e-006 -1.81066 0.367838 -22.965 -72.0648 39.0385 39.3397 33.3638 2.10361 14.835 0.588946 0.308273 6.35287 -99.6409 81.413 100.35 -0.0181409 3.00992e-005 -0.117315 -0.124139 0.00241116 -0.799296 -79.8382 79.5773 80.5374 -0.000260638 -0.000218545 2.35879e-005 -0.000956216 0.000123025 -2.7297e-005 -66.7416 80.4058 67.2171 -0.000437124 1.49025e-005 -2.73035e-005 -0.000136592 -0.000109254 -5.46181e-005 -6.42159 81.2158 8.01779 -0.000218555 1.95995e-005 0.000212311 0.000901598 -0.000191217 -0.000218547 0.000811311 0.56661 89.91 -52.4622 -0.980662 0.191925 2.88845e-007 -1.37948 -1.10132e-010 53.5266 0.100464 -0.00669871 9.81764e-009 0.0538785 2.88123e-008 -54.5712 1.77185 -1.66819 -35.4947 8.54873e-008 7.19503e-007 -180 -0.566579 -90.09 -2.31152 -5.55093 -3.12268 -4.822e-007 -5.64408 -1.23291e-008 21.9597 2.74142 -0.914465 4.03893e-007 4.07356 6.15557e-008 -39.8366 -0.557295 0.735249 -68.5895 4.7774 0.0572856 
-342.947 179.145 -368.16 73.5399 -52.163 75.2039 -180 4.29621e-031 -90 0.390069 1.59363 -0.427123 0.792469 3.18384 -0.865596 0.792469 3.18428 -0.865602 -5.16985 -0.86087 -0.729155 9.10386 -0.989182 4.66288 120.092 75.5343 58.4939 -13.1534 -4.56658 0.651017 -167.277 84.4999 48.8109 -164.388 6.9736 6.88461 -7.7272e-006 32.0756 3.52545e-005 -74.5279 0.953387 0.587034 -1.10973e-007 0.826938 -3.8812e-007 -1.9586 0.180632 -10.5373 -72.0648 39.0385 39.3397 33.3638 2.10362 14.835 0.588947 0.308273 6.35287 -99.6409 81.413 100.35 -0.0181409 2.77671e-005 -0.117315 -0.124139 0.0024111 -0.799296 -79.8382 79.5773 80.5374 -0.000225772 -0.000220934 2.21665e-005 -0.00095622 0.00012288 -2.73586e-005 -66.7416 80.4058 67.2171 -0.000437128 1.59341e-005 -2.73485e-005 -0.000136598 -0.000109307 -5.46791e-005 -6.42159 81.2158 8.01779 -0.000218564 1.68887e-005 0.000212112 0.000901587 -0.000184828 -0.000218604 -59.9282 75.5373 58.5147 -8.07752 6.05909 4.06034 -167.277 84.4999 48.8109 -174.818 6.58989 14.2088 -8.19269e-006 27.5089 3.28059e-005 -111.794 8.52073 0.572159 -7.27309e-006 12.7666 3.4418e-006 -2.48442 0.511414 -23.2601 -72.0648 39.0385 39.3397 33.3638 2.10361 14.835 0.588946 0.308273 6.35287 -99.6409 81.413 100.35 -0.0181409 3.00992e-005 -0.117315 -0.124139 0.00241116 -0.799296 -79.8382 79.5773 80.5374 -0.000260638 -0.000218545 2.35879e-005 -0.000956216 0.000123025 -2.7297e-005 -66.7416 80.4058 67.2171 -0.000437124 1.49025e-005 -2.73035e-005 -0.000136592 -0.000109254 -5.46181e-005 -6.42159 81.2158 8.01779 -0.000218555 1.95995e-005 0.000212311 0.000901598 -0.000191217 -0.000218547 0.000811311 0.56661 89.91 -47.3676 -0.169443 0.985072 2.88847e-007 -0.31623 -1.10101e-010 37.8907 -0.842715 -0.00512411 1.05164e-008 -1.33548 2.88201e-008 -50.3841 -0.247288 -0.0651041 -35.4947 6.08578e-008 6.47745e-007 -180 -0.566579 -90.09 -0.458508 -4.11035 -2.86701 -4.8176e-007 -3.60181 -1.22937e-008 26.6483 0.149644 -0.337104 4.08078e-007 0.175251 6.14005e-008 -32.9152 0.871988 -0.313273 -66.1915 -0.407011 -2.52792 
-337.578 178.38 -361.862 76.0108 -52.4392 77.8423 -180 4.29621e-031 -90 0.596721 1.5212 -0.223589 1.20001 3.03954 -0.463265 1.20001 3.03998 -0.463275 -4.95638 -0.528642 -1.57016 8.95006 -0.884719 5.48677 120.092 75.5343 58.4939 -13.1039 -5.10212 0.405775 -167.277 84.4999 48.8109 -164.386 7.11616 6.5592 -8.03904e-006 32.503 3.54211e-005 -76.9141 0.71859 0.593265 -1.13219e-007 0.495307 -3.88094e-007 -1.40931 0.134654 -10.915 -72.0648 39.0385 39.3397 33.3638 2.10362 14.835 0.588947 0.308273 6.35287 -99.6409 81.413 100.35 -0.0181409 2.77671e-005 -0.117315 -0.124139 0.0024111 -0.799296 -79.8382 79.5773 80.5374 -0.000225772 -0.000220934 2.21665e-005 -0.00095622 0.00012288 -2.73586e-005 -66.7416 80.4058 67.2171 -0.000437128 1.59341e-005 -2.73485e-005 -0.000136598 -0.000109307 -5.46791e-005 -6.42159 81.2158 8.01779 -0.000218564 1.68887e-005 0.000212112 0.000901587 -0.000184828 -0.000218604 -59.9282 75.5373 58.5147 -6.24051 6.79533 3.89189 -167.277 84.4999 48.8109 -173.2 7.71129 14.2574 -9.21969e-006 29.0767 3.32928e-005 -112.268 8.72634 0.570575 -7.29276e-006 13.0856 3.4462e-006 -3.21964 0.655156 -22.9982 -72.0648 39.0385 39.3397 33.3638 2.10361 14.835 0.588946 0.308273 6.35287 -99.6409 81.413 100.35 -0.0181409 3.00992e-005 -0.117315 -0.124139 0.00241116 -0.799296 -79.8382 79.5773 80.5374 -0.000260638 -0.000218545 2.35879e-005 -0.000956216 0.000123025 -2.7297e-005 -66.7416 80.4058 67.2171 -0.000437124 1.49025e-005 -2.73035e-005 -0.000136592 -0.000109254 -5.46181e-005 -6.42159 81.2158 8.01779 -0.000218555 1.95995e-005 0.000212311 0.000901598 -0.000191217 -0.000218547 0.000811311 0.56661 89.91 -42.3076 0.171083 0.867795 2.88848e-007 0.153293 -1.101e-010 27.8836 -1.30489 0.0749682 1.08554e-008 -2.00908 2.883e-008 -45.4559 -0.934268 0.735004 -35.4947 4.06455e-008 5.71434e-007 -180 -0.566579 -90.09 -2.9913 -3.19864 -2.9634 -4.81475e-007 -2.27612 -1.22791e-008 40.831 -2.50227 -0.00523056 4.12376e-007 -3.83024 6.15376e-008 -34.7731 1.49581 -1.00876 -44.1489 -9.96117 -1.32291 
-332.235 176.269 -355.745 79.0577 -52.5058 80.4991 -180 4.29621e-031 -90 0.826186 1.32691 -0.124752 1.65592 2.65144 -0.268744 1.65592 2.65188 -0.268757 -4.21472 -0.124712 -2.04612 8.2595 -0.635647 6.04071 120.092 75.5343 58.4939 -12.6 -5.24866 0.273351 -167.277 84.4999 48.8109 -165.74 7.25341 6.92627 -7.99293e-006 32.4401 3.53963e-005 -78.915 0.739197 0.597723 -1.1288e-007 0.545462 -3.88097e-007 -0.495994 0.0482215 -11.1056 -72.0648 39.0385 39.3397 33.3638 2.10362 14.835 0.588947 0.308273 6.35287 -99.6409 81.413 100.35 -0.0181409 2.77671e-005 -0.117315 -0.124139 0.0024111 -0.799296 -79.8382 79.5773 80.5374 -0.000225772 -0.000220934 2.21665e-005 -0.00095622 0.00012288 -2.73586e-005 -66.7416 80.4058 67.2171 -0.000437128 1.59341e-005 -2.73485e-005 -0.000136598 -0.000109307 -5.46791e-005 -6.42159 81.2158 8.01779 -0.000218564 1.68887e-005 0.000212112 0.000901587 -0.000184828 -0.000218604 -59.9282 75.5373 58.5147 -5.23331 6.73241 3.6258 -167.277 84.4999 48.8109 -171.253 8.78222 14.8128 -1.0015e-005 30.259 3.36864e-005 -111.171 8.11975 0.574 -7.23528e-006 12.1512 3.43364e-006 -4.00797 0.738682 -20.8772 -72.0648 39.0385 39.3397 33.3638 2.10361 14.835 0.588946 0.308273 6.35287 -99.6409 81.413 100.35 -0.0181409 3.00992e-005 -0.117315 -0.124139 0.00241116 -0.799296 -79.8382 79.5773 80.5374 -0.000260638 -0.000218545 2.35879e-005 -0.000956216 0.000123025 -2.7297e-005 -66.7416 80.4058 67.2171 -0.000437124 1.49025e-005 -2.73035e-005 -0.000136592 -0.000109254 -5.46181e-005 -6.42159 81.2158 8.01779 -0.000218555 1.95995e-005 0.000212311 0.000901598 -0.000191217 -0.000218547 0.000811311 0.56661 89.91 -39.6302 -0.156958 1.24333 2.88847e-007 -0.475788 -1.10103e-010 28.496 -0.49518 0.0870379 1.02449e-008 -0.795779 2.88151e-008 -44.4615 -0.690488 0.588654 -35.4947 2.44108e-008 4.99719e-007 -180 -0.566579 -90.09 -7.39867 -3.36802 -3.98958 -4.81411e-007 -1.97446 -1.22767e-008 57.3708 -3.97814 -0.00675293 4.14794e-007 -6.06933 6.17463e-008 -39.4743 2.20586 -1.78624 -35.4947 2.11362e-007 -5.09775e-008 
